<svg enable-background="new 0 0 100.5 18.1" viewBox="0 0 100.5 18.1" xmlns="http://www.w3.org/2000/svg"><g fill="#111"><path d="m1.2 16.6c-.8-1-1.2-2.5-1.2-4.4v-6.3c0-1.9.4-3.4 1.2-4.4.8-1 2.2-1.5 4.2-1.5 1.9 0 3.2.4 4 1.3s1.2 2.1 1.2 3.8v1.5h-4v-1.8c0-.7-.1-1.2-.2-1.6-.1-.3-.5-.5-1-.5s-1 .2-1.1.6c-.2.4-.3.9-.3 1.6v8.3c0 .7.1 1.2.3 1.6s.5.6 1.1.6c.5 0 .9-.2 1-.6.2-.4.2-.9.2-1.6v-1.8h3.9v1.5c0 1.6-.4 2.9-1.2 3.9-.8.9-2.1 1.4-4 1.4-1.9-.1-3.3-.6-4.1-1.6z"/><path d="m15.2.2h4.5l3.3 17.6h-3.6l-.6-3.7h-2.6l-.6 3.7h-3.7zm3.2 11.6-.9-6.9-.9 6.9z"/><path d="m25.8 3.1h-2.7v-2.9h9.3v2.9h-2.7v14.7h-4v-14.7z"/><path d="m39.5.2h6.9v1.8h-4.4v5.8h3.6v1.7h-3.6v6.4h4.5v1.8h-7z"/><path d="m48.5.2h1.7l5.1 11.7v-11.7h2.1v17.6h-1.6l-5.1-12v12h-2.1v-17.6z"/><path d="m59.8.2h6.9v1.8h-4.4v5.8h3.6v1.7h-3.6v6.4h4.5v1.8h-7z"/><path d="m68.8.2h3.6c1.8 0 3.1.4 4 1.1s1.3 1.9 1.3 3.6c0 2.3-.7 3.6-2.2 4.1l2.5 8.8h-2.4l-2.3-8.3h-1.9v8.3h-2.5v-17.6zm3.4 7.6c1.1 0 1.8-.2 2.3-.6s.7-1.2.7-2.3c0-.7-.1-1.3-.2-1.7s-.4-.7-.9-.9c-.4-.2-1-.3-1.7-.3h-1.1v5.8z"/><path d="m80.8 16.5c-.7-1-1.1-2.5-1.1-4.5v-5.8c0-1.4.1-2.5.4-3.4s.8-1.5 1.5-2 1.7-.7 2.9-.7c1.6 0 2.8.4 3.6 1.2.7.8 1.1 2.1 1.1 3.9v.7h-2.3v-.6c0-.8-.1-1.5-.2-1.9-.1-.5-.3-.8-.7-1-.3-.3-.8-.4-1.4-.4-.7 0-1.2.2-1.5.5s-.6.7-.7 1.2-.1 1.2-.1 2.1v6.5c0 1.3.2 2.3.5 2.9s1 .9 1.9.9 1.6-.3 1.9-1c.3-.6.5-1.7.5-3.1v-1.2h-2.3v-1.7h4.5v8.7h-1.6l-.2-2c-.6 1.5-1.6 2.2-3.2 2.2s-2.8-.5-3.5-1.5z"/><path d="m94.3 11.6-3.9-11.4h2.3l2.7 8.5 2.7-8.5h2.3l-3.8 11.4v6.2h-2.4v-6.2z"/></g></svg>