<svg enable-background="new 0 0 33.3 37.6" viewBox="0 0 33.3 37.6" xmlns="http://www.w3.org/2000/svg"><g fill="#fdc305"><path d="m6.1 20.7.1-2.3c6.7-.9 13.4-1.4 20.2-1.3 0 .6 0 1.2-.1 1.8 0 0 2.9-1.3 6-1.8-2.4-6.3-8.5-10.8-15.6-10.8-8.3 0-15.2 6.1-16.5 14.1 2.2.1 5.9.3 5.9.3z"/><path d="m27.2 24.2c-1.2 1.3-1.4 1.2-1.4 3.5v9.2c4.5-3 7.4-8.1 7.4-13.9 0-1.1-.1-2.1-.3-3.1-1.7 1.1-4.7 3.2-5.7 4.3z"/><path d="m6.4 25.7s-3.8-1.4-5.2-1.8c-.4-.1-.8-.2-1.2-.3.2 6 3.7 11.3 8.7 14z"/></g><path d="m26.3 17.1c.1-8.5-1.4-16.5-1.4-16.5s-.2-1.2-.9-.2c-.7 1.1-1.2 3.9-1.2 3.9-7.4-.4-12.8.3-12.8.3-.8-2.6-2.1-3.8-2.8-3.6-.7.3-.7 3.4-.7 3.4l-.4 14.1c6.7-1 13.5-1.4 20.2-1.4z" fill="#f06351"/><path d="m12.4 14c0-.1 1 .7 1.4.9s.6.4.6.6-.3.3-.6.3-.9-.1-1-.3h.9.3c.1.1-1.3-1-1.6-1.5z"/><path d="m19.9 14.1s-1 1.3-1.1 1.3c0 .1-.2.3.2.3s1.1-.2 1.2-.3.1-.2-.1-.2-.7 0-1 .1l.8-1.2s.1-.1 0 0z"/><path d="m16.8 20.2s.8-.4 1.1-1c.3-.7 0-.9-.4-1-.5-.1-1.3 0-1.7.3-.4.4-.3.7-.1 1 .2.2.8.6 1.1.7z"/><path d="m16.3 21.5s-.2.4-.5.6c-.2.2-.6.4-1 .4-.6 0-1.1-.2-1.5-.4-.2-.1-.4-.3-.5-.4-.2-.2-.4-.3-.4-.3s.7 4.1 2.6 4.7c1.8.6 2.1-.7 2.2-1.1 0-.3 0-2.1-.8-3.2.1-.4 0-.2-.1-.3z" fill="#f06351"/><path d="m14.7 22.6c-1.3 0-2.3-1.4-2.3-1.4 0-.1 0-.2 0-.2h.2s1 1.3 2.1 1.3c.6 0 1.1-.3 1.6-1l.1-.2.1.2s.4.8 1 .8c.5 0 1.1-.4 1.6-1.3 0-.1.1-.1.2 0 .1 0 .1.1 0 .2-.6 1-1.3 1.4-1.9 1.4s-.9-.5-1.1-.8c-.4.7-1 1-1.6 1z"/><path d="m26.2 18.9s-2.5 2.2-5.1 5.2-5.2 4.9-5.2 4.9c-.2-.5-1.6-1.5-1.6-1.5s-3.1-2.1-5.2-3.8c-1.2-1-2.3-2.2-3.1-3-.3 0-1.1-.1-2-.1 4.7 7 12 8.8 12 8.8.9-.1 3.3-1.9 5.1-3.3s4.8-4.5 5.9-5.9c.6-.7.9-1.4 1.1-2-1.1.4-1.9.7-1.9.7z" fill="#f06351"/></svg>